<svg xmlns="http://www.w3.org/2000/svg" xmlns:xlink="http://www.w3.org/1999/xlink" contentStyleType="text/css" height="590px" preserveAspectRatio="none" style="width:3206px;height:590px;background:#FFFFFF;" version="1.1" viewBox="0 0 3206 590" width="3206px" zoomAndPan="magnify"><defs/><g><!--cluster Initialization--><g id="cluster_Initialization"><path d="M8.5,6 L108.6826,6 A3.75,3.75 0 0 1 111.1826,8.5 L118.1826,28.2969 L1931.5,28.2969 A2.5,2.5 0 0 1 1934,30.7969 L1934,116.8 A2.5,2.5 0 0 1 1931.5,119.3 L8.5,119.3 A2.5,2.5 0 0 1 6,116.8 L6,8.5 A2.5,2.5 0 0 1 8.5,6 " fill="none" style="stroke:#000000;stroke-width:1.5;"/><line style="stroke:#000000;stroke-width:1.5;" x1="6" x2="118.1826" y1="28.2969" y2="28.2969"/><text fill="#000000" font-family="sans-serif" font-size="14" font-weight="bold" lengthAdjust="spacing" textLength="99.1826" x="10" y="20.9951">Initialization</text></g><!--cluster Event Handling--><g id="cluster_Event Handling"><path d="M293.5,168.3 L414.9561,168.3 A3.75,3.75 0 0 1 417.4561,170.8 L424.4561,190.5969 L1931.5,190.5969 A2.5,2.5 0 0 1 1934,193.0969 L1934,439.39 A2.5,2.5 0 0 1 1931.5,441.89 L293.5,441.89 A2.5,2.5 0 0 1 291,439.39 L291,170.8 A2.5,2.5 0 0 1 293.5,168.3 " fill="none" style="stroke:#000000;stroke-width:1.5;"/><line style="stroke:#000000;stroke-width:1.5;" x1="291" x2="424.4561" y1="190.5969" y2="190.5969"/><text fill="#000000" font-family="sans-serif" font-size="14" font-weight="bold" lengthAdjust="spacing" textLength="120.4561" x="295" y="183.2951">Event Handling</text></g><!--cluster Timer Functionality--><g id="cluster_Timer Functionality"><path d="M1976.5,328.6 L2131.4453,328.6 A3.75,3.75 0 0 1 2133.9453,331.1 L2140.9453,350.8969 L3192.5,350.8969 A2.5,2.5 0 0 1 3195,353.3969 L3195,580.69 A2.5,2.5 0 0 1 3192.5,583.19 L1976.5,583.19 A2.5,2.5 0 0 1 1974,580.69 L1974,331.1 A2.5,2.5 0 0 1 1976.5,328.6 " fill="none" style="stroke:#000000;stroke-width:1.5;"/><line style="stroke:#000000;stroke-width:1.5;" x1="1974" x2="2140.9453" y1="350.8969" y2="350.8969"/><text fill="#000000" font-family="sans-serif" font-size="14" font-weight="bold" lengthAdjust="spacing" textLength="153.9453" x="1978" y="343.5951">Timer Functionality</text></g><!--entity Initialize Tkinter Root Window--><g id="elem_Initialize Tkinter Root Window"><rect fill="#F1F1F1" height="46.2969" rx="2.5" ry="2.5" style="stroke:#181818;stroke-width:0.5;" width="249.0771" x="30.46" y="49"/><rect fill="#F1F1F1" height="10" style="stroke:#181818;stroke-width:0.5;" width="15" x="259.5371" y="54"/><rect fill="#F1F1F1" height="2" style="stroke:#181818;stroke-width:0.5;" width="4" x="257.5371" y="56"/><rect fill="#F1F1F1" height="2" style="stroke:#181818;stroke-width:0.5;" width="4" x="257.5371" y="60"/><text fill="#000000" font-family="sans-serif" font-size="14" lengthAdjust="spacing" textLength="209.0771" x="45.46" y="81.9951">Initialize Tkinter Root Window</text></g><!--entity Set Window Title and Geometry--><g id="elem_Set Window Title and Geometry"><rect fill="#F1F1F1" height="46.2969" rx="2.5" ry="2.5" style="stroke:#181818;stroke-width:0.5;" width="262.8789" x="314.56" y="49"/><rect fill="#F1F1F1" height="10" style="stroke:#181818;stroke-width:0.5;" width="15" x="557.4389" y="54"/><rect fill="#F1F1F1" height="2" style="stroke:#181818;stroke-width:0.5;" width="4" x="555.4389" y="56"/><rect fill="#F1F1F1" height="2" style="stroke:#181818;stroke-width:0.5;" width="4" x="555.4389" y="60"/><text fill="#000000" font-family="sans-serif" font-size="14" lengthAdjust="spacing" textLength="222.8789" x="329.56" y="81.9951">Set Window Title and Geometry</text></g><!--entity Configure Dark Background--><g id="elem_Configure Dark Background"><rect fill="#F1F1F1" height="46.2969" rx="2.5" ry="2.5" style="stroke:#181818;stroke-width:0.5;" width="234.1133" x="611.94" y="49"/><rect fill="#F1F1F1" height="10" style="stroke:#181818;stroke-width:0.5;" width="15" x="826.0533" y="54"/><rect fill="#F1F1F1" height="2" style="stroke:#181818;stroke-width:0.5;" width="4" x="824.0533" y="56"/><rect fill="#F1F1F1" height="2" style="stroke:#181818;stroke-width:0.5;" width="4" x="824.0533" y="60"/><text fill="#000000" font-family="sans-serif" font-size="14" lengthAdjust="spacing" textLength="194.1133" x="626.94" y="81.9951">Configure Dark Background</text></g><!--entity Initialize Variables--><g id="elem_Initialize Variables"><rect fill="#F1F1F1" height="46.2969" rx="2.5" ry="2.5" style="stroke:#181818;stroke-width:0.5;" width="168.1055" x="880.95" y="49"/><rect fill="#F1F1F1" height="10" style="stroke:#181818;stroke-width:0.5;" width="15" x="1029.0555" y="54"/><rect fill="#F1F1F1" height="2" style="stroke:#181818;stroke-width:0.5;" width="4" x="1027.0555" y="56"/><rect fill="#F1F1F1" height="2" style="stroke:#181818;stroke-width:0.5;" width="4" x="1027.0555" y="60"/><text fill="#000000" font-family="sans-serif" font-size="14" lengthAdjust="spacing" textLength="128.1055" x="895.95" y="81.9951">Initialize Variables</text></g><!--entity Initialize Pygame Mixer--><g id="elem_Initialize Pygame Mixer"><rect fill="#F1F1F1" height="46.2969" rx="2.5" ry="2.5" style="stroke:#181818;stroke-width:0.5;" width="202.5586" x="1083.72" y="49"/><rect fill="#F1F1F1" height="10" style="stroke:#181818;stroke-width:0.5;" width="15" x="1266.2786" y="54"/><rect fill="#F1F1F1" height="2" style="stroke:#181818;stroke-width:0.5;" width="4" x="1264.2786" y="56"/><rect fill="#F1F1F1" height="2" style="stroke:#181818;stroke-width:0.5;" width="4" x="1264.2786" y="60"/><text fill="#000000" font-family="sans-serif" font-size="14" lengthAdjust="spacing" textLength="162.5586" x="1098.72" y="81.9951">Initialize Pygame Mixer</text></g><!--entity Load Sounds (if enabled)--><g id="elem_Load Sounds (if enabled)"><rect fill="#F1F1F1" height="46.2969" rx="2.5" ry="2.5" style="stroke:#181818;stroke-width:0.5;" width="214.6445" x="1321.68" y="49"/><rect fill="#F1F1F1" height="10" style="stroke:#181818;stroke-width:0.5;" width="15" x="1516.3245" y="54"/><rect fill="#F1F1F1" height="2" style="stroke:#181818;stroke-width:0.5;" width="4" x="1514.3245" y="56"/><rect fill="#F1F1F1" height="2" style="stroke:#181818;stroke-width:0.5;" width="4" x="1514.3245" y="60"/><text fill="#000000" font-family="sans-serif" font-size="14" lengthAdjust="spacing" textLength="174.6445" x="1336.68" y="81.9951">Load Sounds (if enabled)</text></g><!--entity Create Widgets--><g id="elem_Create Widgets"><rect fill="#F1F1F1" height="46.2969" rx="2.5" ry="2.5" style="stroke:#181818;stroke-width:0.5;" width="148.1787" x="1570.91" y="49"/><rect fill="#F1F1F1" height="10" style="stroke:#181818;stroke-width:0.5;" width="15" x="1699.0887" y="54"/><rect fill="#F1F1F1" height="2" style="stroke:#181818;stroke-width:0.5;" width="4" x="1697.0887" y="56"/><rect fill="#F1F1F1" height="2" style="stroke:#181818;stroke-width:0.5;" width="4" x="1697.0887" y="60"/><text fill="#000000" font-family="sans-serif" font-size="14" lengthAdjust="spacing" textLength="108.1787" x="1585.91" y="81.9951">Create Widgets</text></g><!--entity Style Widgets--><g id="elem_Style Widgets"><rect fill="#F1F1F1" height="46.2969" rx="2.5" ry="2.5" style="stroke:#181818;stroke-width:0.5;" width="136.5166" x="1753.74" y="49"/><rect fill="#F1F1F1" height="10" style="stroke:#181818;stroke-width:0.5;" width="15" x="1870.2566" y="54"/><rect fill="#F1F1F1" height="2" style="stroke:#181818;stroke-width:0.5;" width="4" x="1868.2566" y="56"/><rect fill="#F1F1F1" height="2" style="stroke:#181818;stroke-width:0.5;" width="4" x="1868.2566" y="60"/><text fill="#000000" font-family="sans-serif" font-size="14" lengthAdjust="spacing" textLength="96.5166" x="1768.74" y="81.9951">Style Widgets</text></g><!--entity Start Button Pressed--><g id="elem_Start Button Pressed"><rect fill="#F1F1F1" height="46.2969" rx="2.5" ry="2.5" style="stroke:#181818;stroke-width:0.5;" width="184.8945" x="314.55" y="211.3"/><rect fill="#F1F1F1" height="10" style="stroke:#181818;stroke-width:0.5;" width="15" x="479.4445" y="216.3"/><rect fill="#F1F1F1" height="2" style="stroke:#181818;stroke-width:0.5;" width="4" x="477.4445" y="218.3"/><rect fill="#F1F1F1" height="2" style="stroke:#181818;stroke-width:0.5;" width="4" x="477.4445" y="222.3"/><text fill="#000000" font-family="sans-serif" font-size="14" lengthAdjust="spacing" textLength="144.8945" x="329.55" y="244.2951">Start Button Pressed</text></g><!--entity Validate Time Input--><g id="elem_Validate Time Input"><rect fill="#F1F1F1" height="46.2969" rx="2.5" ry="2.5" style="stroke:#181818;stroke-width:0.5;" width="177.3477" x="534.33" y="211.3"/><rect fill="#F1F1F1" height="10" style="stroke:#181818;stroke-width:0.5;" width="15" x="691.6777" y="216.3"/><rect fill="#F1F1F1" height="2" style="stroke:#181818;stroke-width:0.5;" width="4" x="689.6777" y="218.3"/><rect fill="#F1F1F1" height="2" style="stroke:#181818;stroke-width:0.5;" width="4" x="689.6777" y="222.3"/><text fill="#000000" font-family="sans-serif" font-size="14" lengthAdjust="spacing" textLength="137.3477" x="549.33" y="244.2951">Validate Time Input</text></g><!--entity Set Remaining Time--><g id="elem_Set Remaining Time"><rect fill="#F1F1F1" height="46.2969" rx="2.5" ry="2.5" style="stroke:#181818;stroke-width:0.5;" width="181.5518" x="627.22" y="371.6"/><rect fill="#F1F1F1" height="10" style="stroke:#181818;stroke-width:0.5;" width="15" x="788.7718" y="376.6"/><rect fill="#F1F1F1" height="2" style="stroke:#181818;stroke-width:0.5;" width="4" x="786.7718" y="378.6"/><rect fill="#F1F1F1" height="2" style="stroke:#181818;stroke-width:0.5;" width="4" x="786.7718" y="382.6"/><text fill="#000000" font-family="sans-serif" font-size="14" lengthAdjust="spacing" textLength="141.5518" x="642.22" y="404.5951">Set Remaining Time</text></g><!--entity Display Invalid Input--><g id="elem_Display Invalid Input"><rect fill="#F1F1F1" height="46.2969" rx="2.5" ry="2.5" style="stroke:#181818;stroke-width:0.5;" width="183.2881" x="409.36" y="371.6"/><rect fill="#F1F1F1" height="10" style="stroke:#181818;stroke-width:0.5;" width="15" x="572.6481" y="376.6"/><rect fill="#F1F1F1" height="2" style="stroke:#181818;stroke-width:0.5;" width="4" x="570.6481" y="378.6"/><rect fill="#F1F1F1" height="2" style="stroke:#181818;stroke-width:0.5;" width="4" x="570.6481" y="382.6"/><text fill="#000000" font-family="sans-serif" font-size="14" lengthAdjust="spacing" textLength="143.2881" x="424.36" y="404.5951">Display Invalid Input</text></g><!--entity Set Running Flag--><g id="elem_Set Running Flag"><rect fill="#F1F1F1" height="46.2969" rx="2.5" ry="2.5" style="stroke:#181818;stroke-width:0.5;" width="159.2939" x="1316.35" y="371.6"/><rect fill="#F1F1F1" height="10" style="stroke:#181818;stroke-width:0.5;" width="15" x="1455.6439" y="376.6"/><rect fill="#F1F1F1" height="2" style="stroke:#181818;stroke-width:0.5;" width="4" x="1453.6439" y="378.6"/><rect fill="#F1F1F1" height="2" style="stroke:#181818;stroke-width:0.5;" width="4" x="1453.6439" y="382.6"/><text fill="#000000" font-family="sans-serif" font-size="14" lengthAdjust="spacing" textLength="119.2939" x="1331.35" y="404.5951">Set Running Flag</text></g><!--entity Update Display--><g id="elem_Update Display"><rect fill="#F1F1F1" height="46.2969" rx="2.5" ry="2.5" style="stroke:#181818;stroke-width:0.5;" width="146.7568" x="1510.62" y="371.6"/><rect fill="#F1F1F1" height="10" style="stroke:#181818;stroke-width:0.5;" width="15" x="1637.3768" y="376.6"/><rect fill="#F1F1F1" height="2" style="stroke:#181818;stroke-width:0.5;" width="4" x="1635.3768" y="378.6"/><rect fill="#F1F1F1" height="2" style="stroke:#181818;stroke-width:0.5;" width="4" x="1635.3768" y="382.6"/><text fill="#000000" font-family="sans-serif" font-size="14" lengthAdjust="spacing" textLength="106.7568" x="1525.62" y="404.5951">Update Display</text></g><!--entity Schedule Time Update--><g id="elem_Schedule Time Update"><rect fill="#F1F1F1" height="46.2969" rx="2.5" ry="2.5" style="stroke:#181818;stroke-width:0.5;" width="198.6279" x="1692.69" y="371.6"/><rect fill="#F1F1F1" height="10" style="stroke:#181818;stroke-width:0.5;" width="15" x="1871.3179" y="376.6"/><rect fill="#F1F1F1" height="2" style="stroke:#181818;stroke-width:0.5;" width="4" x="1869.3179" y="378.6"/><rect fill="#F1F1F1" height="2" style="stroke:#181818;stroke-width:0.5;" width="4" x="1869.3179" y="382.6"/><text fill="#000000" font-family="sans-serif" font-size="14" lengthAdjust="spacing" textLength="158.6279" x="1707.69" y="404.5951">Schedule Time Update</text></g><!--entity Stop Button Pressed--><g id="elem_Stop Button Pressed"><rect fill="#F1F1F1" height="46.2969" rx="2.5" ry="2.5" style="stroke:#181818;stroke-width:0.5;" width="182.5225" x="843.74" y="371.6"/><rect fill="#F1F1F1" height="10" style="stroke:#181818;stroke-width:0.5;" width="15" x="1006.2625" y="376.6"/><rect fill="#F1F1F1" height="2" style="stroke:#181818;stroke-width:0.5;" width="4" x="1004.2625" y="378.6"/><rect fill="#F1F1F1" height="2" style="stroke:#181818;stroke-width:0.5;" width="4" x="1004.2625" y="382.6"/><text fill="#000000" font-family="sans-serif" font-size="14" lengthAdjust="spacing" textLength="142.5225" x="858.74" y="404.5951">Stop Button Pressed</text></g><!--entity Cancel Scheduled Update--><g id="elem_Cancel Scheduled Update"><rect fill="#F1F1F1" height="46.2969" rx="2.5" ry="2.5" style="stroke:#181818;stroke-width:0.5;" width="220.25" x="1060.87" y="371.6"/><rect fill="#F1F1F1" height="10" style="stroke:#181818;stroke-width:0.5;" width="15" x="1261.12" y="376.6"/><rect fill="#F1F1F1" height="2" style="stroke:#181818;stroke-width:0.5;" width="4" x="1259.12" y="378.6"/><rect fill="#F1F1F1" height="2" style="stroke:#181818;stroke-width:0.5;" width="4" x="1259.12" y="382.6"/><text fill="#000000" font-family="sans-serif" font-size="14" lengthAdjust="spacing" textLength="180.25" x="1075.87" y="404.5951">Cancel Scheduled Update</text></g><!--entity Reset Button Pressed--><g id="elem_Reset Button Pressed"><rect fill="#F1F1F1" height="46.2969" rx="2.5" ry="2.5" style="stroke:#181818;stroke-width:0.5;" width="190.4316" x="746.78" y="211.3"/><rect fill="#F1F1F1" height="10" style="stroke:#181818;stroke-width:0.5;" width="15" x="917.2116" y="216.3"/><rect fill="#F1F1F1" height="2" style="stroke:#181818;stroke-width:0.5;" width="4" x="915.2116" y="218.3"/><rect fill="#F1F1F1" height="2" style="stroke:#181818;stroke-width:0.5;" width="4" x="915.2116" y="222.3"/><text fill="#000000" font-family="sans-serif" font-size="14" lengthAdjust="spacing" textLength="150.4316" x="761.78" y="244.2951">Reset Button Pressed</text></g><!--entity Stop Timer--><g id="elem_Stop Timer"><rect fill="#F1F1F1" height="46.2969" rx="2.5" ry="2.5" style="stroke:#181818;stroke-width:0.5;" width="116.7266" x="972.64" y="211.3"/><rect fill="#F1F1F1" height="10" style="stroke:#181818;stroke-width:0.5;" width="15" x="1069.3666" y="216.3"/><rect fill="#F1F1F1" height="2" style="stroke:#181818;stroke-width:0.5;" width="4" x="1067.3666" y="218.3"/><rect fill="#F1F1F1" height="2" style="stroke:#181818;stroke-width:0.5;" width="4" x="1067.3666" y="222.3"/><text fill="#000000" font-family="sans-serif" font-size="14" lengthAdjust="spacing" textLength="76.7266" x="987.64" y="244.2951">Stop Timer</text></g><!--entity Reset Remaining Time--><g id="elem_Reset Remaining Time"><rect fill="#F1F1F1" height="46.2969" rx="2.5" ry="2.5" style="stroke:#181818;stroke-width:0.5;" width="198.2998" x="1124.85" y="211.3"/><rect fill="#F1F1F1" height="10" style="stroke:#181818;stroke-width:0.5;" width="15" x="1303.1498" y="216.3"/><rect fill="#F1F1F1" height="2" style="stroke:#181818;stroke-width:0.5;" width="4" x="1301.1498" y="218.3"/><rect fill="#F1F1F1" height="2" style="stroke:#181818;stroke-width:0.5;" width="4" x="1301.1498" y="222.3"/><text fill="#000000" font-family="sans-serif" font-size="14" lengthAdjust="spacing" textLength="158.2998" x="1139.85" y="244.2951">Reset Remaining Time</text></g><!--entity Reset Display and Input Fields--><g id="elem_Reset Display and Input Fields"><rect fill="#F1F1F1" height="46.2969" rx="2.5" ry="2.5" style="stroke:#181818;stroke-width:0.5;" width="252.3584" x="1357.82" y="211.3"/><rect fill="#F1F1F1" height="10" style="stroke:#181818;stroke-width:0.5;" width="15" x="1590.1784" y="216.3"/><rect fill="#F1F1F1" height="2" style="stroke:#181818;stroke-width:0.5;" width="4" x="1588.1784" y="218.3"/><rect fill="#F1F1F1" height="2" style="stroke:#181818;stroke-width:0.5;" width="4" x="1588.1784" y="222.3"/><text fill="#000000" font-family="sans-serif" font-size="14" lengthAdjust="spacing" textLength="212.3584" x="1372.82" y="244.2951">Reset Display and Input Fields</text></g><!--entity Stop Alarm Sound (if playing)--><g id="elem_Stop Alarm Sound (if playing)"><rect fill="#F1F1F1" height="46.2969" rx="2.5" ry="2.5" style="stroke:#181818;stroke-width:0.5;" width="246.1855" x="1644.91" y="211.3"/><rect fill="#F1F1F1" height="10" style="stroke:#181818;stroke-width:0.5;" width="15" x="1871.0955" y="216.3"/><rect fill="#F1F1F1" height="2" style="stroke:#181818;stroke-width:0.5;" width="4" x="1869.0955" y="218.3"/><rect fill="#F1F1F1" height="2" style="stroke:#181818;stroke-width:0.5;" width="4" x="1869.0955" y="222.3"/><text fill="#000000" font-family="sans-serif" font-size="14" lengthAdjust="spacing" textLength="206.1855" x="1659.91" y="244.2951">Stop Alarm Sound (if playing)</text></g><!--entity Update Time--><g id="elem_Update Time"><rect fill="#F1F1F1" height="46.2969" rx="2.5" ry="2.5" style="stroke:#181818;stroke-width:0.5;" width="129.8447" x="2725.08" y="512.89"/><rect fill="#F1F1F1" height="10" style="stroke:#181818;stroke-width:0.5;" width="15" x="2834.9247" y="517.89"/><rect fill="#F1F1F1" height="2" style="stroke:#181818;stroke-width:0.5;" width="4" x="2832.9247" y="519.89"/><rect fill="#F1F1F1" height="2" style="stroke:#181818;stroke-width:0.5;" width="4" x="2832.9247" y="523.89"/><text fill="#000000" font-family="sans-serif" font-size="14" lengthAdjust="spacing" textLength="89.8447" x="2740.08" y="545.8851">Update Time</text></g><!--entity Play Tick/Tock Sound (if enabled)--><g id="elem_Play Tick/Tock Sound (if enabled)"><rect fill="#F1F1F1" height="46.2969" rx="2.5" ry="2.5" style="stroke:#181818;stroke-width:0.5;" width="273.0508" x="2889.47" y="512.89"/><rect fill="#F1F1F1" height="10" style="stroke:#181818;stroke-width:0.5;" width="15" x="3142.5208" y="517.89"/><rect fill="#F1F1F1" height="2" style="stroke:#181818;stroke-width:0.5;" width="4" x="3140.5208" y="519.89"/><rect fill="#F1F1F1" height="2" style="stroke:#181818;stroke-width:0.5;" width="4" x="3140.5208" y="523.89"/><text fill="#000000" font-family="sans-serif" font-size="14" lengthAdjust="spacing" textLength="233.0508" x="2904.47" y="545.8851">Play Tick/Tock Sound (if enabled)</text></g><!--entity Decrement Remaining Time--><g id="elem_Decrement Remaining Time"><rect fill="#F1F1F1" height="46.2969" rx="2.5" ry="2.5" style="stroke:#181818;stroke-width:0.5;" width="236.6357" x="1997.68" y="512.89"/><rect fill="#F1F1F1" height="10" style="stroke:#181818;stroke-width:0.5;" width="15" x="2214.3157" y="517.89"/><rect fill="#F1F1F1" height="2" style="stroke:#181818;stroke-width:0.5;" width="4" x="2212.3157" y="519.89"/><rect fill="#F1F1F1" height="2" style="stroke:#181818;stroke-width:0.5;" width="4" x="2212.3157" y="523.89"/><text fill="#000000" font-family="sans-serif" font-size="14" lengthAdjust="spacing" textLength="196.6357" x="2012.68" y="545.8851">Decrement Remaining Time</text></g><!--entity Schedule Next Time Update--><g id="elem_Schedule Next Time Update"><rect fill="#F1F1F1" height="46.2969" rx="2.5" ry="2.5" style="stroke:#181818;stroke-width:0.5;" width="235.9385" x="1998.03" y="371.6"/><rect fill="#F1F1F1" height="10" style="stroke:#181818;stroke-width:0.5;" width="15" x="2213.9685" y="376.6"/><rect fill="#F1F1F1" height="2" style="stroke:#181818;stroke-width:0.5;" width="4" x="2211.9685" y="378.6"/><rect fill="#F1F1F1" height="2" style="stroke:#181818;stroke-width:0.5;" width="4" x="2211.9685" y="382.6"/><text fill="#000000" font-family="sans-serif" font-size="14" lengthAdjust="spacing" textLength="195.9385" x="2013.03" y="404.5951">Schedule Next Time Update</text></g><!--entity Check if Time Remaining--><g id="elem_Check if Time Remaining"><rect fill="#F1F1F1" height="46.2969" rx="2.5" ry="2.5" style="stroke:#181818;stroke-width:0.5;" width="214.8975" x="2268.55" y="371.6"/><rect fill="#F1F1F1" height="10" style="stroke:#181818;stroke-width:0.5;" width="15" x="2463.4475" y="376.6"/><rect fill="#F1F1F1" height="2" style="stroke:#181818;stroke-width:0.5;" width="4" x="2461.4475" y="378.6"/><rect fill="#F1F1F1" height="2" style="stroke:#181818;stroke-width:0.5;" width="4" x="2461.4475" y="382.6"/><text fill="#000000" font-family="sans-serif" font-size="14" lengthAdjust="spacing" textLength="174.8975" x="2283.55" y="404.5951">Check if Time Remaining</text></g><!--entity Set Time's Up--><g id="elem_Set Time's Up"><rect fill="#F1F1F1" height="46.2969" rx="2.5" ry="2.5" style="stroke:#181818;stroke-width:0.5;" width="136.8584" x="2269.57" y="512.89"/><rect fill="#F1F1F1" height="10" style="stroke:#181818;stroke-width:0.5;" width="15" x="2386.4284" y="517.89"/><rect fill="#F1F1F1" height="2" style="stroke:#181818;stroke-width:0.5;" width="4" x="2384.4284" y="519.89"/><rect fill="#F1F1F1" height="2" style="stroke:#181818;stroke-width:0.5;" width="4" x="2384.4284" y="523.89"/><text fill="#000000" font-family="sans-serif" font-size="14" lengthAdjust="spacing" textLength="96.8584" x="2284.57" y="545.8851">Set Time's Up</text></g><!--entity Play Alarm Sound (if enabled)--><g id="elem_Play Alarm Sound (if enabled)"><rect fill="#F1F1F1" height="46.2969" rx="2.5" ry="2.5" style="stroke:#181818;stroke-width:0.5;" width="248.6055" x="2441.7" y="512.89"/><rect fill="#F1F1F1" height="10" style="stroke:#181818;stroke-width:0.5;" width="15" x="2670.3055" y="517.89"/><rect fill="#F1F1F1" height="2" style="stroke:#181818;stroke-width:0.5;" width="4" x="2668.3055" y="519.89"/><rect fill="#F1F1F1" height="2" style="stroke:#181818;stroke-width:0.5;" width="4" x="2668.3055" y="523.89"/><text fill="#000000" font-family="sans-serif" font-size="14" lengthAdjust="spacing" textLength="208.6055" x="2456.7" y="545.8851">Play Alarm Sound (if enabled)</text></g><!--link Initialize Tkinter Root Window to Set Window Title and Geometry--><g id="link_Initialize Tkinter Root Window_Set Window Title and Geometry"><path d="M279.75,72.15 C291.23,72.15 296.7,72.15 308.17,72.15 " fill="none" id="Initialize Tkinter Root Window-to-Set Window Title and Geometry" style="stroke:#181818;stroke-width:1.0;"/><polygon fill="#181818" points="314.17,72.15,305.17,68.15,309.17,72.15,305.17,76.15,314.17,72.15" style="stroke:#181818;stroke-width:1.0;"/></g><!--link Set Window Title and Geometry to Configure Dark Background--><g id="link_Set Window Title and Geometry_Configure Dark Background"><path d="M577.83,72.15 C589.05,72.15 594.27,72.15 605.49,72.15 " fill="none" id="Set Window Title and Geometry-to-Configure Dark Background" style="stroke:#181818;stroke-width:1.0;"/><polygon fill="#181818" points="611.49,72.15,602.49,68.15,606.49,72.15,602.49,76.15,611.49,72.15" style="stroke:#181818;stroke-width:1.0;"/></g><!--link Configure Dark Background to Initialize Variables--><g id="link_Configure Dark Background_Initialize Variables"><path d="M846.54,72.15 C857.95,72.15 863.37,72.15 874.78,72.15 " fill="none" id="Configure Dark Background-to-Initialize Variables" style="stroke:#181818;stroke-width:1.0;"/><polygon fill="#181818" points="880.78,72.15,871.78,68.15,875.78,72.15,871.78,76.15,880.78,72.15" style="stroke:#181818;stroke-width:1.0;"/></g><!--link Initialize Variables to Initialize Pygame Mixer--><g id="link_Initialize Variables_Initialize Pygame Mixer"><path d="M1049.22,72.15 C1060.62,72.15 1066.03,72.15 1077.43,72.15 " fill="none" id="Initialize Variables-to-Initialize Pygame Mixer" style="stroke:#181818;stroke-width:1.0;"/><polygon fill="#181818" points="1083.43,72.15,1074.43,68.15,1078.43,72.15,1074.43,76.15,1083.43,72.15" style="stroke:#181818;stroke-width:1.0;"/></g><!--link Initialize Pygame Mixer to Load Sounds (if enabled)--><g id="link_Initialize Pygame Mixer_Load Sounds (if enabled)"><path d="M1286.51,72.15 C1298.1,72.15 1303.7,72.15 1315.3,72.15 " fill="none" id="Initialize Pygame Mixer-to-Load Sounds (if enabled)" style="stroke:#181818;stroke-width:1.0;"/><polygon fill="#181818" points="1321.3,72.15,1312.3,68.15,1316.3,72.15,1312.3,76.15,1321.3,72.15" style="stroke:#181818;stroke-width:1.0;"/></g><!--link Load Sounds (if enabled) to Create Widgets--><g id="link_Load Sounds (if enabled)_Create Widgets"><path d="M1536.58,72.15 C1547.87,72.15 1553.17,72.15 1564.46,72.15 " fill="none" id="Load Sounds (if enabled)-to-Create Widgets" style="stroke:#181818;stroke-width:1.0;"/><polygon fill="#181818" points="1570.46,72.15,1561.46,68.15,1565.46,72.15,1561.46,76.15,1570.46,72.15" style="stroke:#181818;stroke-width:1.0;"/></g><!--link Create Widgets to Style Widgets--><g id="link_Create Widgets_Style Widgets"><path d="M1719.33,72.15 C1730.69,72.15 1736.05,72.15 1747.42,72.15 " fill="none" id="Create Widgets-to-Style Widgets" style="stroke:#181818;stroke-width:1.0;"/><polygon fill="#181818" points="1753.42,72.15,1744.42,68.15,1748.42,72.15,1744.42,76.15,1753.42,72.15" style="stroke:#181818;stroke-width:1.0;"/></g><!--link Start Button Pressed to Validate Time Input--><g id="link_Start Button Pressed_Validate Time Input"><path d="M499.81,234.45 C511.2,234.45 516.59,234.45 527.98,234.45 " fill="none" id="Start Button Pressed-to-Validate Time Input" style="stroke:#181818;stroke-width:1.0;"/><polygon fill="#181818" points="533.98,234.45,524.98,230.45,528.98,234.45,524.98,238.45,533.98,234.45" style="stroke:#181818;stroke-width:1.0;"/></g><!--link Validate Time Input to Set Remaining Time--><g id="link_Validate Time Input_Set Remaining Time"><path d="M636.41,257.79 C654.46,287.88 683.3225,335.9553 701.4225,366.1153 " fill="none" id="Validate Time Input-to-Set Remaining Time" style="stroke:#181818;stroke-width:1.0;"/><polygon fill="#181818" points="704.51,371.26,703.3086,361.4847,701.9371,366.9728,696.449,365.6013,704.51,371.26" style="stroke:#181818;stroke-width:1.0;"/><text fill="#000000" font-family="sans-serif" font-size="13" lengthAdjust="spacing" textLength="70.1289" x="663" y="300.6669">Valid Input</text></g><!--link Validate Time Input to Display Invalid Input--><g id="link_Validate Time Input_Display Invalid Input"><path d="M595.39,257.9 C585.52,266.62 574.7,277.04 566,287.6 C544,314.27 526.916,343.7666 515.096,366.1066 " fill="none" id="Validate Time Input-to-Display Invalid Input" style="stroke:#181818;stroke-width:1.0;"/><polygon fill="#181818" points="512.29,371.41,520.0346,365.3255,514.6283,366.9905,512.9634,361.5842,512.29,371.41" style="stroke:#181818;stroke-width:1.0;"/><text fill="#000000" font-family="sans-serif" font-size="13" lengthAdjust="spacing" textLength="81.0024" x="567" y="300.6669">Invalid Input</text></g><!--link Set Remaining Time to Set Running Flag--><g id="link_Set Remaining Time_Set Running Flag"><path d="M735.77,371.31 C757.69,344.56 797.72,302.28 843.5,285.1 C934.63,250.9 1191.18,248.82 1281.5,285.1 C1324.66,302.43 1357.1986,339.8166 1376.7286,366.5266 " fill="none" id="Set Remaining Time-to-Set Running Flag" style="stroke:#181818;stroke-width:1.0;"/><polygon fill="#181818" points="1380.27,371.37,1378.1868,361.744,1377.3188,367.3338,1371.729,366.4659,1380.27,371.37" style="stroke:#181818;stroke-width:1.0;"/></g><!--link Set Running Flag to Update Display--><g id="link_Set Running Flag_Update Display"><path d="M1476.05,394.74 C1487.43,394.74 1492.82,394.74 1504.2,394.74 " fill="none" id="Set Running Flag-to-Update Display" style="stroke:#181818;stroke-width:1.0;"/><polygon fill="#181818" points="1510.2,394.74,1501.2,390.74,1505.2,394.74,1501.2,398.74,1510.2,394.74" style="stroke:#181818;stroke-width:1.0;"/></g><!--link Update Display to Schedule Time Update--><g id="link_Update Display_Schedule Time Update"><path d="M1657.53,394.74 C1669.09,394.74 1674.64,394.74 1686.2,394.74 " fill="none" id="Update Display-to-Schedule Time Update" style="stroke:#181818;stroke-width:1.0;"/><polygon fill="#181818" points="1692.2,394.74,1683.2,390.74,1687.2,394.74,1683.2,398.74,1692.2,394.74" style="stroke:#181818;stroke-width:1.0;"/></g><!--link Stop Button Pressed to Cancel Scheduled Update--><g id="link_Stop Button Pressed_Cancel Scheduled Update"><path d="M1026.73,394.74 C1038,394.74 1043.27,394.74 1054.54,394.74 " fill="none" id="Stop Button Pressed-to-Cancel Scheduled Update" style="stroke:#181818;stroke-width:1.0;"/><polygon fill="#181818" points="1060.54,394.74,1051.54,390.74,1055.54,394.74,1051.54,398.74,1060.54,394.74" style="stroke:#181818;stroke-width:1.0;"/></g><!--link Cancel Scheduled Update to Set Running Flag--><g id="link_Cancel Scheduled Update_Set Running Flag"><path d="M1281.3,394.74 C1292.95,394.74 1298.6,394.74 1310.25,394.74 " fill="none" id="Cancel Scheduled Update-to-Set Running Flag" style="stroke:#181818;stroke-width:1.0;"/><polygon fill="#181818" points="1316.25,394.74,1307.25,390.74,1311.25,394.74,1307.25,398.74,1316.25,394.74" style="stroke:#181818;stroke-width:1.0;"/></g><!--link Reset Button Pressed to Stop Timer--><g id="link_Reset Button Pressed_Stop Timer"><path d="M937.61,234.45 C949.16,234.45 954.71,234.45 966.26,234.45 " fill="none" id="Reset Button Pressed-to-Stop Timer" style="stroke:#181818;stroke-width:1.0;"/><polygon fill="#181818" points="972.26,234.45,963.26,230.45,967.26,234.45,963.26,238.45,972.26,234.45" style="stroke:#181818;stroke-width:1.0;"/></g><!--link Stop Timer to Reset Remaining Time--><g id="link_Stop Timer_Reset Remaining Time"><path d="M1089.8,234.45 C1101.34,234.45 1106.87,234.45 1118.4,234.45 " fill="none" id="Stop Timer-to-Reset Remaining Time" style="stroke:#181818;stroke-width:1.0;"/><polygon fill="#181818" points="1124.4,234.45,1115.4,230.45,1119.4,234.45,1115.4,238.45,1124.4,234.45" style="stroke:#181818;stroke-width:1.0;"/></g><!--link Reset Remaining Time to Reset Display and Input Fields--><g id="link_Reset Remaining Time_Reset Display and Input Fields"><path d="M1323.53,234.45 C1334.81,234.45 1340.1,234.45 1351.38,234.45 " fill="none" id="Reset Remaining Time-to-Reset Display and Input Fields" style="stroke:#181818;stroke-width:1.0;"/><polygon fill="#181818" points="1357.38,234.45,1348.38,230.45,1352.38,234.45,1348.38,238.45,1357.38,234.45" style="stroke:#181818;stroke-width:1.0;"/></g><!--link Reset Display and Input Fields to Stop Alarm Sound (if playing)--><g id="link_Reset Display and Input Fields_Stop Alarm Sound (if playing)"><path d="M1610.47,234.45 C1621.85,234.45 1627.24,234.45 1638.62,234.45 " fill="none" id="Reset Display and Input Fields-to-Stop Alarm Sound (if playing)" style="stroke:#181818;stroke-width:1.0;"/><polygon fill="#181818" points="1644.62,234.45,1635.62,230.45,1639.62,234.45,1635.62,238.45,1644.62,234.45" style="stroke:#181818;stroke-width:1.0;"/></g><!--link Update Time to Play Tick/Tock Sound (if enabled)--><g id="link_Update Time_Play Tick/Tock Sound (if enabled)"><path d="M2854.99,536.04 C2866.35,536.04 2871.7,536.04 2883.06,536.04 " fill="none" id="Update Time-to-Play Tick/Tock Sound (if enabled)" style="stroke:#181818;stroke-width:1.0;"/><polygon fill="#181818" points="2889.06,536.04,2880.06,532.04,2884.06,536.04,2880.06,540.04,2889.06,536.04" style="stroke:#181818;stroke-width:1.0;"/></g><!--link Play Tick/Tock Sound (if enabled) to Decrement Remaining Time--><g id="link_Play Tick/Tock Sound (if enabled)_Decrement Remaining Time"><path d="M2962.23,512.46 C2930.36,501.9 2890.91,490.66 2854.5,485.39 C2725.84,466.79 2397.85,464.76 2269.5,485.39 C2236.67,490.67 2206.9657,499.8241 2178.4857,510.3841 " fill="none" id="Play Tick/Tock Sound (if enabled)-to-Decrement Remaining Time" style="stroke:#181818;stroke-width:1.0;"/><polygon fill="#181818" points="2172.86,512.47,2182.6892,513.0916,2177.5481,510.7317,2179.908,505.5906,2172.86,512.47" style="stroke:#181818;stroke-width:1.0;"/></g><!--link Decrement Remaining Time to Update Display--><g id="link_Decrement Remaining Time_Update Display"><path d="M1997.58,528 C1906.58,519.39 1779.22,500.27 1675,457.89 C1651.43,448.31 1632.5115,435.6123 1615.2315,422.0623 " fill="none" id="Decrement Remaining Time-to-Update Display" style="stroke:#181818;stroke-width:1.0;"/><polygon fill="#181818" points="1610.51,418.36,1615.124,427.0612,1614.4446,421.4453,1620.0605,420.7658,1610.51,418.36" style="stroke:#181818;stroke-width:1.0;"/></g><!--link Update Display to Schedule Next Time Update--><g id="link_Update Display_Schedule Next Time Update"><path d="M1599.57,371.13 C1617.31,346.6 1648.79,309.71 1686.67,294.26 C1729.6,276.75 1850.02,284.43 1895.33,294.26 C1963.21,308.99 2030.0729,343.4543 2072.7129,368.2443 " fill="none" id="Update Display-to-Schedule Next Time Update" style="stroke:#181818;stroke-width:1.0;"/><polygon fill="#181818" points="2077.9,371.26,2072.1298,363.2785,2073.5774,368.747,2068.1089,370.1946,2077.9,371.26" style="stroke:#181818;stroke-width:1.0;"/></g><!--link Schedule Next Time Update to Check if Time Remaining--><g id="link_Schedule Next Time Update_Check if Time Remaining"><path d="M2234.32,394.74 C2245.57,394.74 2250.83,394.74 2262.08,394.74 " fill="none" id="Schedule Next Time Update-to-Check if Time Remaining" style="stroke:#181818;stroke-width:1.0;"/><polygon fill="#181818" points="2268.08,394.74,2259.08,390.74,2263.08,394.74,2259.08,398.74,2268.08,394.74" style="stroke:#181818;stroke-width:1.0;"/></g><!--link Check if Time Remaining to Update Time--><g id="link_Check if Time Remaining_Update Time"><path d="M2410.31,418.11 C2431.67,431.21 2460.1,447.24 2487,457.89 C2581.1,495.17 2610.03,487.47 2708,512.89 C2713.42,514.3 2713.239,514.2475 2718.879,515.7375 " fill="none" id="Check if Time Remaining-to-Update Time" style="stroke:#181818;stroke-width:1.0;"/><polygon fill="#181818" points="2724.68,517.27,2717.0002,511.1039,2719.8459,515.9929,2714.9568,518.8385,2724.68,517.27" style="stroke:#181818;stroke-width:1.0;"/><text fill="#000000" font-family="sans-serif" font-size="13" lengthAdjust="spacing" textLength="105.9614" x="2562" y="478.9569">Time Remaining</text></g><!--link Check if Time Remaining to Set Time's Up--><g id="link_Check if Time Remaining_Set Time's Up"><path d="M2369.89,418.13 C2362.8,444.12 2352.7481,480.9613 2345.6681,506.9313 " fill="none" id="Check if Time Remaining-to-Set Time's Up" style="stroke:#181818;stroke-width:1.0;"/><polygon fill="#181818" points="2344.09,512.72,2350.3164,505.089,2345.4051,507.8961,2342.598,502.9848,2344.09,512.72" style="stroke:#181818;stroke-width:1.0;"/><text fill="#000000" font-family="sans-serif" font-size="13" lengthAdjust="spacing" textLength="85.7124" x="2356" y="478.9569">Time Expired</text></g><!--link Set Time's Up to Play Alarm Sound (if enabled)--><g id="link_Set Time's Up_Play Alarm Sound (if enabled)"><path d="M2406.58,536.04 C2418.2,536.04 2423.83,536.04 2435.45,536.04 " fill="none" id="Set Time's Up-to-Play Alarm Sound (if enabled)" style="stroke:#181818;stroke-width:1.0;"/><polygon fill="#181818" points="2441.45,536.04,2432.45,532.04,2436.45,536.04,2432.45,540.04,2441.45,536.04" style="stroke:#181818;stroke-width:1.0;"/></g><!--link Initialization to Event Handling--><g id="link_Initialization_Event Handling"><path d="M1926,119.6988 C1926,120.2554 1926,120.8147 1926,121.3764 C1926,122.4999 1926,123.6334 1926,124.7758 C1926,133.9151 1926,143.6234 1926,153.3313 C1926,158.1852 1926,163.0389 1926,167.8214 C1926,167.9708 1926,184.4171 1926,184.5664 " fill="none" id="Initialization-to-Event Handling" style="stroke:#181818;stroke-width:1.0;"/><polygon fill="#181818" points="1926,190.5664,1930,181.5664,1926,185.5664,1922,181.5664,1926,190.5664" style="stroke:#181818;stroke-width:1.0;"/></g><!--link Event Handling to Timer Functionality--><g id="link_Event Handling_Timer Functionality"><path d="M1934.9287,235.6678 C1936.7294,235.7127 1938.7925,235.7644 1941.1092,235.8229 C1950.3761,236.0571 1963.7008,236.4003 1980.5148,236.8504 C2014.1429,237.7507 2061.7287,239.0786 2118.7255,240.8166 C2232.7191,244.2925 2384.3569,249.4088 2537.2663,256.025 C2843.085,269.2575 3153.99,288.49 3179,312.6 C3182.16,315.645 3184.672,319.1423 3186.6467,322.9378 C3187.1403,323.8867 3187.6004,324.8542 3188.0286,325.8379 C3188.2427,326.3298 3188.4489,326.8257 3188.6473,327.3254 C3188.7465,327.5752 3188.8437,327.826 3188.9391,328.0777 C3188.9868,328.2035 3186.952,344.9993 3186.9987,345.1256 " fill="none" id="Event Handling-to-Timer Functionality" style="stroke:#181818;stroke-width:1.0;"/><polygon fill="#181818" points="3189.0807,350.7528,3189.7092,340.924,3187.3457,346.0634,3182.2063,343.6999,3189.0807,350.7528" style="stroke:#181818;stroke-width:1.0;"/></g><!--SRC=[dLNBRjim4BphAnQvk3a4lUTGe8dZ941R6BQQ7W8V676Z4A98WQGIkqN_lNpfQSafufjtPdU7kqDg0VU26KOu-qqCaoAfI5QG7E5i63-3FmdOtsCRHaWB9Wmgs4Xfu1SJLBxjuE8BF6wn-GyfCno120gtA4iqwh0BTKvpV9bhAPvPNYk49L45N5bbkPAreB74FExJUqeVY6BaYQFU7HsYWyP9wqDEIeJlR8_gE6-0-jHlab3OkluQFh5dGE7gqlEOEmk7ioea1kr4Q8wcaJaAXjcQ0-_n_YR90cvUKHYuinFaJEJT2eVnTeLRGvI1gzeOAM2jK6kC8tkmPwEkPShisUv5LPiePGg1YsRP6om94xQ7XtTm2PuVUEyLM39TSNAmiTSkoTKO13hNZ9kr8chXeojEyfx91c5F_bbv8R5lf8w2eMhsWhJcKNDW17epI5bDpl6QY0mvDFbqa3kBdZX9IDoWnkd5UILEPUFKNi0JGkfeTFsgKrCDIBCVTq7zAc35a5CzI9ybTVA-SgBAS0Fy1N1ys-yycjYBXLKjClVUsCMRG-Va2R2rSznS9tljXAGiApwdCYjw7KStydsUBxV4J67fRjBa-6RX3thj1-xDiU5EuC5nBsYFOBLxf5NIE6u63HTmCC3B4UT_2ZZFEc2XhQQsnCs-OWffTnDxb7PDOrDqA_Aci4-yGBzp3KzetX05H5FePFY5ybB6Jrvoz0PwrfIT_W40]--></g></svg>